<svg xmlns="http://www.w3.org/2000/svg" viewBox="0 0 361.25 58.99"><defs><style>.cls-1{isolation:isolate;}.cls-2{mix-blend-mode:multiply;}.cls-3{fill:none;stroke:#000;stroke-linecap:round;stroke-linejoin:round;stroke-width:2px;}.cls-4{fill:#fff;}.cls-5{fill:#1a1818;}</style></defs><g class="cls-1"><g id="Layer_4" data-name="Layer 4"><g class="cls-2"><rect x="15.88" y="16.03" width="35.66" height="35.66"/><rect class="cls-3" x="15.88" y="16.03" width="35.66" height="35.66"/></g><rect class="cls-4" x="13.88" y="14.03" width="35.66" height="35.66"/><rect class="cls-3" x="13.88" y="14.03" width="35.66" height="35.66"/><g class="cls-2"><rect x="57.51" y="16.03" width="35.66" height="35.66"/><rect class="cls-3" x="57.51" y="16.03" width="35.66" height="35.66"/></g><rect class="cls-4" x="55.51" y="14.03" width="35.66" height="35.66"/><rect class="cls-3" x="55.51" y="14.03" width="35.66" height="35.66"/><g class="cls-2"><rect x="99.14" y="16.03" width="35.66" height="35.66"/><rect class="cls-3" x="99.14" y="16.03" width="35.66" height="35.66"/></g><rect class="cls-4" x="97.14" y="14.03" width="35.66" height="35.66"/><rect class="cls-3" x="97.14" y="14.03" width="35.66" height="35.66"/><g class="cls-2"><rect x="140.77" y="16.03" width="35.66" height="35.66"/><rect class="cls-3" x="140.77" y="16.03" width="35.66" height="35.66"/></g><rect class="cls-4" x="138.77" y="14.03" width="35.66" height="35.66"/><rect class="cls-3" x="138.77" y="14.03" width="35.66" height="35.66"/><g class="cls-2"><rect x="182.4" y="16.03" width="35.66" height="35.66"/><rect class="cls-3" x="182.4" y="16.03" width="35.66" height="35.66"/></g><rect class="cls-4" x="180.4" y="14.03" width="35.66" height="35.66"/><rect class="cls-3" x="180.4" y="14.03" width="35.66" height="35.66"/><g class="cls-2"><rect x="224.04" y="16.03" width="35.66" height="35.66"/><rect class="cls-3" x="224.04" y="16.03" width="35.66" height="35.66"/></g><rect class="cls-4" x="222.04" y="14.03" width="35.66" height="35.66"/><rect class="cls-3" x="222.04" y="14.03" width="35.66" height="35.66"/><g class="cls-2"><rect x="265.67" y="16.03" width="35.66" height="35.66"/><rect class="cls-3" x="265.67" y="16.03" width="35.66" height="35.66"/></g><rect class="cls-4" x="263.67" y="14.03" width="35.66" height="35.66"/><rect class="cls-3" x="263.67" y="14.03" width="35.66" height="35.66"/><g class="cls-2"><rect x="307.3" y="16.03" width="35.66" height="35.66"/><rect class="cls-3" x="307.3" y="16.03" width="35.66" height="35.66"/></g><rect class="cls-4" x="305.3" y="14.03" width="35.66" height="35.66"/><rect class="cls-3" x="305.3" y="14.03" width="35.66" height="35.66"/><path d="M36.46,40.68c0-.4.32-13.92.32-13.92L33.1,40.68H30.25L26.57,26.76s.32,13.37.32,13.92h-3.1V23.74H28.4l3.31,12.58L35,23.74h4.58V40.68Z"/><path d="M67.71,40.68V23.74H79.76v2.83H70.83v4H79v2.74H70.83v4.54h9.53v2.85Z"/><path d="M116.53,26.59V40.68h-3.17V26.59h-4.6V23.74h12.45v2.85Z"/><path d="M160.73,40.68l-1-3.31h-6.36l-1,3.31H149l5.73-16.94h3.6l5.79,16.94Zm-4.15-13.89-2.35,7.8h4.68Z"/><path d="M203,40.68c0-.4.31-13.92.31-13.92l-3.67,13.92h-2.86L193.1,26.76s.31,13.37.31,13.92h-3.09V23.74h4.6l3.32,12.58,3.26-12.58h4.59V40.68Z"/><path d="M244,40.68l-1-3.31h-6.36l-1,3.31h-3.41L238,23.74h3.6l5.78,16.94Zm-4.16-13.89-2.35,7.8h4.68Z"/><path d="M282.8,23.74c3.34,0,5.6,2.18,5.6,5.37a4.62,4.62,0,0,1-3.34,4.66l3.77,6.91H285.2l-3.33-6.29H279v6.29h-3.14V23.74Zm-3.79,8h2.45c2.28,0,3.72-.67,3.72-2.66,0-1.82-1.25-2.62-3.29-2.62H279Z"/><path d="M324.87,26.59V40.68H321.7V26.59h-4.61V23.74h12.46v2.85Z"/><path class="cls-5" d="M349.19,11.56v3.9h-1.08v-3.9H346.7v-.83h3.81v.83Zm5.82,3.9c0-2.05,0-3.74,0-3.74l-1,3.74h-.87l-1.05-3.8s.06,3.53.06,3.8h-1V10.73h1.61l.85,3.32.83-3.32H356v4.73Z"/></g></g></svg>