<svg id="Background" xmlns="http://www.w3.org/2000/svg" viewBox="0 0 311.73 522.8"><defs><style>.cls-1{fill:#fff;}.cls-2{fill:#e2e2e2;}.cls-3,.cls-4{fill:none;stroke:#000;stroke-linecap:round;stroke-linejoin:round;}.cls-3{stroke-width:3px;}.cls-4{stroke-width:0.45px;}</style></defs><polygon class="cls-1" points="235.01 12.73 229.69 9.66 169.98 44.13 157.4 48.4 5.54 136.08 5.54 427.66 155.3 514.12 307.16 426.45 307.16 134.86 235.01 26.94 235.01 12.73"/><polygon class="cls-2" points="5.54 427.66 155.3 514.12 155.3 222.54 83.16 114.61 83.16 100.41 77.83 97.33 77.76 111.5 5.54 136.08 5.54 427.66"/><polygon class="cls-3" points="235.01 12.73 229.69 9.66 169.98 44.13 157.4 48.4 5.54 136.08 5.54 427.66 155.3 514.12 307.16 426.45 307.16 134.86 235.01 26.94 235.01 12.73"/><line class="cls-4" x1="180.79" y1="105.94" x2="184.91" y2="102.34"/><line class="cls-4" x1="180.51" y1="106.19" x2="180.79" y2="105.94"/><line class="cls-4" x1="77.83" y1="111.54" x2="5.55" y2="136.08"/><line class="cls-4" x1="83.16" y1="114.61" x2="235.01" y2="26.94"/><line class="cls-4" x1="83.16" y1="114.61" x2="155.3" y2="222.54"/><line class="cls-4" x1="5.55" y1="136.08" x2="151.03" y2="220.07"/><line class="cls-4" x1="5.55" y1="136.08" x2="77.76" y2="111.5"/><line class="cls-4" x1="180.07" y1="106.57" x2="180.51" y2="106.19"/><line class="cls-4" x1="169.98" y1="44.13" x2="77.83" y2="97.33"/><line class="cls-4" x1="77.83" y1="111.54" x2="77.83" y2="97.33"/><line class="cls-4" x1="83.16" y1="114.61" x2="83.16" y2="100.41"/><line class="cls-4" x1="235.01" y1="12.73" x2="83.16" y2="100.41"/><path class="cls-4" d="M215.87,137.76a17,17,0,0,0,5.59-11.86,24.52,24.52,0,0,0-3-13c-4.09-7.72-12.22-14-21.3-14.57-9.9-.56-17.33,6.16-17.9,16-.53,9.06,4.75,17.9,11.94,22.88"/><path class="cls-4" d="M180.79,105.94c-5.39,4.72-6.55,12.1-5,18.63a28.28,28.28,0,0,0,11.33,16.31"/><path class="cls-4" d="M191.25,137.28a24.25,24.25,0,0,0,12.32,4.44,17,17,0,0,0,12.3-4"/><path class="cls-4" d="M187.13,140.88a24.25,24.25,0,0,0,12.32,4.44,17,17,0,0,0,12.3-4"/><path class="cls-4" d="M211,142l-.44.4"/><line class="cls-4" x1="155.3" y1="222.54" x2="307.16" y2="134.86"/><line class="cls-4" x1="9.83" y1="138.55" x2="78.76" y2="115.15"/><line class="cls-4" x1="151.02" y1="220.07" x2="155.3" y2="222.54"/><line class="cls-4" x1="78.76" y1="115.15" x2="82.22" y2="117.15"/><line class="cls-4" x1="82.22" y1="117.15" x2="151.02" y2="220.07"/><line class="cls-4" x1="83.16" y1="114.61" x2="77.83" y2="111.54"/><polyline class="cls-4" points="155.3 222.54 155.3 514.12 5.54 427.66"/><path class="cls-4" d="M179.63,107l.45-.38"/><path class="cls-4" d="M178.55,103.94c-6.08,5.32-7.38,13.64-5.62,21a31.86,31.86,0,0,0,12.76,18.37"/><line class="cls-4" x1="213.43" y1="143.84" x2="212.55" y2="144.61"/><line class="cls-4" x1="177.67" y1="104.72" x2="178.55" y2="103.94"/><path class="cls-4" d="M185.69,143.31a27.39,27.39,0,0,0,13.88,5,19.1,19.1,0,0,0,13.86-4.47"/><path class="cls-4" d="M189.68,99.48a18.71,18.71,0,0,0-11.13,4.46"/><path class="cls-4" d="M213.43,143.84a18.6,18.6,0,0,0,5.91-10.43"/><path class="cls-4" d="M177.67,104.72c-6.08,5.31-7.38,13.63-5.62,21a31.81,31.81,0,0,0,12.76,18.37"/><path class="cls-4" d="M184.81,144.08a27.3,27.3,0,0,0,13.88,5,19.12,19.12,0,0,0,13.86-4.47"/><line class="cls-4" x1="77.83" y1="97.33" x2="83.16" y2="100.41"/><line class="cls-4" x1="215.87" y1="137.76" x2="211.75" y2="141.35"/><line class="cls-4" x1="211.75" y1="141.35" x2="210.59" y2="142.37"/></svg>