<?xml version="1.0" encoding="utf-8"?>
<!-- Generator: Adobe Illustrator 26.0.1, SVG Export Plug-In . SVG Version: 6.00 Build 0)  -->
<svg version="1.1" id="Layer_1" xmlns="http://www.w3.org/2000/svg" xmlns:xlink="http://www.w3.org/1999/xlink" x="0px" y="0px"
	 viewBox="0 0 772.4 300" style="enable-background:new 0 0 772.4 300;" xml:space="preserve">
<style type="text/css">
	.st0{fill:#FFFFFF;}
</style>
<path class="st0" d="M150,182.6l-43.8,2.9c-1.8-7.9-5.4-15.4-10.4-21.8c-4.9-6.1-11.7-10.3-20.5-12.7h-0.2c-1.7,1-3.3,1.9-5,2.7
	c-1.7,0.9-3.3,1.9-4.8,3.1c-4,3-7.4,6.6-10.2,10.6c-2.8,4-5,8.4-6.7,13c-1.7,4.7-2.9,9.6-3.5,14.5c-0.7,4.9-1,9.9-1,14.8
	c0,6.8,0.7,13.7,2.2,20.3c1.4,6.4,3.8,12.5,7.1,18.1c3.3,5.5,7.5,10.5,12.4,14.6c5.4,4.4,11.5,7.7,18.2,9.8
	c5.9-2.4,11.1-6.2,15.1-11.1c4.1-4.8,7.1-10.5,8.7-16.7c0.3-0.9,0.5-1.8,0.7-2.7c0.2-1,0.3-1.9,0.3-2.9v-18.8h-49v-2.9h92.8v18.8
	c-0.1,2.7-0.7,5.4-1.7,7.9c-0.9,2.6-2,5.1-3.3,7.5c-2.9,5.2-6.9,9.7-11.7,13.1c-4.4,3-9.3,5.4-14.4,7c-5.1,1.6-15.8,3.1-31.9,4.4
	s-26.8,2-31.9,2c-9.5,0-17.8-1.8-24.9-5.3c-6.9-3.4-13-8.3-17.9-14.3c-5-6.2-8.7-13.3-11-20.9c-2.5-8.1-3.7-16.5-3.7-25
	c0-6.6,0.7-13.1,2-19.6c1.2-6.2,3.4-12.1,6.4-17.6c2.9-5.4,6.8-10.2,11.5-14.2c5.1-4.3,11.1-7.5,17.5-9.3c5.1-1.7,16-3.1,32.4-4.3
	s27.6-1.8,33.3-1.8C128.2,146.1,143.9,158.3,150,182.6z M166.2,235.4h43.8c1,12.5,4,21.7,9.1,27.4s12.2,9.5,21.4,11.2
	c5.5-2.2,10.4-5.7,14.2-10.2c3.8-4.4,5.6-10.4,5.6-17.7c0.2-4.4-0.7-8.8-2.5-12.8c-1.6-3.3-3.9-6.3-6.8-8.7c-3-2.5-6.4-4.5-10-6
	c-3.8-1.6-7.8-3.1-12-4.5c-4.3-1.5-8.6-3-13-4.4l-13.2-4.2c-3.6-1.1-7.2-2.3-10.6-3.6c-3.3-1.2-6.4-2.7-9.3-4.7
	c-2.7-1.9-5-4.4-6.6-7.3c-1.7-3-2.5-6.8-2.5-11.6c0-3,0.4-6.1,1.2-9c0.8-2.9,2.1-5.6,3.8-8.1c2.5-3.3,5.6-6,9.3-8
	c3.5-1.9,7.3-3.2,11.3-4.1c4-0.8,13.2-1.8,27.7-2.8s24.6-1.6,30.1-1.6c5.6-0.1,11.1,0.5,16.6,1.8c4.6,1,8.9,3,12.6,5.8
	c3.6,2.9,6.4,6.5,8.2,10.7c2,4.5,3.2,10.9,3.6,19.4h-43.8c-0.3-7.1-2.2-14.1-5.5-20.4c-3.3-6-9-10-17.2-11.9
	c-4.6,2.1-8.4,5.8-10.6,10.4c-2.3,4.6-3.5,9.7-3.6,14.8c-0.1,3.9,0.7,7.8,2.4,11.4c1.6,2.9,3.8,5.5,6.5,7.4c2.8,2,6,3.6,9.3,4.7
	c3.5,1.2,7.1,2.4,10.9,3.6c4.4,1.4,8.8,2.8,13.1,4.1c4.3,1.3,8.7,2.7,13.1,4.3c4.2,1.5,8.1,3.1,11.9,4.7c3.6,1.5,6.9,3.4,9.9,5.8
	c2.9,2.4,5.2,5.3,6.9,8.7c3.4,8,3.5,17,0.2,25c-1.6,3.4-3.8,6.5-6.6,9.1c-2.9,2.6-6.1,4.7-9.7,6.3c-3.8,1.6-7.7,2.9-11.8,3.6
	c-3.9,0.7-7.9,1.2-11.9,1.4c-4,0.2-8,0.5-11.9,0.7l-2.7,0.2c-5.3,0.3-10.6,0.7-15.9,1.1c-5.3,0.5-10.6,0.7-16.1,0.7
	c-6.7,0.1-13.4-0.5-20-1.7c-5.4-0.9-10.5-3-14.9-6.1c-4.2-3.1-7.5-7.4-9.6-12.2C168.4,253.2,166.9,245.6,166.2,235.4L166.2,235.4z
	 M479.8,277.1h-45L417.6,235h-48.4l-17.3,42.1h-42.6l17.3-42.1l35-88.2h65.1L479.8,277.1z M370.5,232.1h45.9l-22.7-56.3L370.5,232.1
	z M542.3,277.1h-43.8V146.8h88.9c5.3,0,10.5,0.7,15.6,2c4.8,1.2,9.3,3.3,13.2,6.1c3.9,2.8,7,6.6,9.1,10.9c2.3,5,3.5,10.4,3.3,15.9
	c0,7.2-1,13.1-3.1,17.5c-1.9,4.2-4.8,7.8-8.6,10.5c-3.8,2.6-7.9,4.8-12.2,6.3c-4.8,1.7-9.8,2.7-14.9,3.1l-1.7,0.2
	c-1.8,0.3-3.7,0.5-5.5,0.6l-5.5,0.4c-5.7,0.3-11.5,0.4-17.4,0.3s-11.7-0.1-17.4-0.1L542.3,277.1L542.3,277.1z M542.3,217.4h20.4
	c7.2-2.1,12.7-5.7,16.5-10.7s5.6-12.5,5.6-22.2c0.2-5.5-1-11-3.4-16c-2.2-4.3-5.4-8-9.3-10.9c-4.1-2.9-8.7-4.9-13.6-6
	c-5.3-1.3-10.7-1.9-16.2-1.9c-0.1,0-0.2,0-0.2,0.1c0,0,0,0,0,0.1L542.3,217.4L542.3,217.4z M686.1,277.1h-43.8V146.8h88.9
	c5.3,0,10.5,0.7,15.6,2c4.8,1.2,9.2,3.3,13.2,6.1c3.9,2.8,7,6.6,9.1,10.9c2.3,5,3.5,10.4,3.3,15.9c0,7.2-1,13.1-3.1,17.5
	c-1.9,4.2-4.8,7.8-8.5,10.5c-3.8,2.7-7.9,4.8-12.2,6.4c-4.8,1.7-9.8,2.7-14.9,3.1l-1.7,0.2c-1.8,0.3-3.7,0.5-5.5,0.6l-5.5,0.4
	c-5.7,0.3-11.5,0.4-17.4,0.3s-11.7-0.1-17.4-0.1L686.1,277.1L686.1,277.1z M686.1,217.4h20.4c7.2-2.1,12.7-5.7,16.5-10.7
	s5.6-12.5,5.6-22.2c0.2-5.6-1-11.1-3.4-16.1c-2.2-4.3-5.4-8-9.3-10.9c-4.1-2.9-8.7-4.9-13.6-6c-5.3-1.3-10.7-1.9-16.1-1.9
	c-0.1,0-0.2,0-0.2,0.1c0,0,0,0,0,0.1L686.1,217.4L686.1,217.4z M133.5,34.5c2.5,0,5,0.3,7.4,0.9c2.4,0.6,4.6,1.5,6.7,2.7
	c2.1,1.2,3.9,2.8,5.5,4.6c1.7,1.9,3,4,3.9,6.3c0.4,0.9,0.7,1.8,1,2.8c0.3,0.9,0.5,1.8,0.5,2.8c0,0.7-0.3,1.3-0.9,1.8
	c-0.5,0.4-1.1,0.7-1.8,0.7c-0.4,0-0.8-0.1-1.1-0.3c-0.4-0.2-0.7-0.5-0.9-0.8c-0.4-0.8-0.7-1.6-0.9-2.5c-0.2-0.9-0.5-1.7-0.8-2.5
	c-1-2.3-2.4-4.3-4.2-6.1c-1.8-1.7-4-3-6.3-3.8c-2.7-0.9-5.6-1.3-8.4-1.3c-3.9-0.1-7.9,0.6-11.5,2c-3,1.2-5.7,3.2-7.9,5.7
	c-2.1,2.6-3.7,5.6-4.5,8.8c-1,3.8-1.4,7.6-1.4,11.5c0,3.7,0.5,7.4,1.5,10.9c0.9,3.3,2.5,6.4,4.7,9.2c2.1,2.6,4.7,4.8,7.7,6.3
	c7.4,3.4,16,3.1,23.2-0.9c3.7-2.2,6.6-5.5,8.3-9.5v-0.1c0.3-0.8,0.5-1.5,0.6-2.3c0.2-0.8,0.3-1.5,0.4-2.3c0.1-0.6,0.1-1.2,0.1-1.8
	c0-0.6,0.1-1.2,0.2-1.8c0.1-0.5,0.4-0.9,0.8-1.3c0.5-0.4,1.2-0.5,1.8-0.5c0.7,0,1.3,0.3,1.8,0.8c0.4,0.5,0.6,1.2,0.6,1.8
	c0.1,7-2.8,13.7-8.1,18.3c-2.5,2.2-5.5,4-8.7,5.1c-3.4,1.2-6.9,1.8-10.4,1.8c-2.3,0-4.6-0.3-6.9-0.8c-2.3-0.5-4.4-1.3-6.5-2.4
	c-2.8-1.4-5.4-3.3-7.6-5.6c-2-2.2-3.7-4.6-5.1-7.3c-1.3-2.7-2.3-5.6-2.9-8.6c-0.6-3.1-0.9-6.2-0.9-9.3c-0.1-4.6,0.6-9.1,1.8-13.5
	c1.1-3.8,3-7.4,5.6-10.4c2.6-2.9,5.9-5.2,9.6-6.6C124.2,35.2,128.8,34.4,133.5,34.5L133.5,34.5z M208.9,101.3
	c-4.4,0.1-8.7-0.9-12.6-2.8c-3.6-1.8-6.8-4.4-9.3-7.6c-2.6-3.2-4.5-6.9-5.7-10.8c-1.3-4.1-1.9-8.4-1.9-12.7c0-4.3,0.6-8.6,2-12.7
	c1.3-3.9,3.3-7.5,5.9-10.7c2.6-3.1,5.8-5.6,9.4-7.4c3.9-1.9,8.3-2.9,12.6-2.8c4.4-0.1,8.7,0.9,12.5,2.9c3.6,1.9,6.7,4.4,9.2,7.6
	c2.6,3.2,4.5,6.9,5.7,10.9c1.3,4.1,1.9,8.3,1.9,12.6c0,4.3-0.6,8.6-2,12.7c-1.3,3.9-3.3,7.5-5.9,10.7c-2.6,3.1-5.8,5.6-9.4,7.4
	C217.5,100.4,213.2,101.4,208.9,101.3L208.9,101.3L208.9,101.3z M209.4,96.2c3.7,0.1,7.3-0.8,10.5-2.4c3-1.6,5.6-3.8,7.6-6.5
	c2.1-2.8,3.7-5.9,4.7-9.2c2.1-6.9,2.1-14.3,0-21.2c-1-3.3-2.6-6.4-4.7-9.1c-2.1-2.6-4.7-4.8-7.7-6.3c-6.7-3.2-14.5-3.2-21.1,0
	c-3,1.6-5.6,3.7-7.7,6.4c-2.1,2.7-3.7,5.8-4.7,9.1c-2.1,6.9-2.1,14.3,0,21.2c1,3.3,2.6,6.4,4.7,9.1c2.1,2.6,4.7,4.8,7.7,6.3
	c3.3,1.6,6.9,2.5,10.6,2.4L209.4,96.2z M267.9,95.3h39.4c0.6,0,1.2,0,1.8,0.1c1.2,0.3,2.1,1.4,2,2.7c0,0.7-0.3,1.3-0.9,1.8
	c-0.5,0.4-1.2,0.6-1.8,0.7h-43c-0.7,0-1.3-0.3-1.8-0.8c-0.4-0.5-0.6-1.2-0.6-1.8V37.1c0-0.7,0.3-1.3,0.9-1.8
	c0.5-0.4,1.2-0.6,1.8-0.7c0.5,0,1,0.2,1.4,0.5c0.4,0.3,0.7,0.8,0.9,1.3C268,36.7,267.9,95.3,267.9,95.3z M329.8,37.5
	c0-0.7,0.3-1.3,0.9-1.8c0.5-0.4,1.2-0.7,1.9-0.7c0.5,0,1,0.2,1.4,0.5c0.4,0.3,0.7,0.8,0.9,1.3v36.8c0.1,3.3,0.4,6.7,0.8,10
	c0.2,2.4,0.9,4.7,2.2,6.8c0.9,1.2,2,2.2,3.3,2.9c1.3,0.7,2.8,1.3,4.2,1.8c1.5,0.4,3,0.7,4.5,0.9c1.5,0.2,2.9,0.2,4.4,0.2
	c1.5,0,3-0.1,4.5-0.3c1.6-0.2,3.2-0.5,4.7-1c1.5-0.5,3-1.2,4.3-2c1.3-0.8,2.4-1.9,3.2-3.2c0.7-1.2,1.2-2.5,1.4-3.9
	c0.4-1.9,0.7-3.9,0.9-5.9c0.2-2.2,0.3-4.4,0.3-6.9c0-2.4,0.1-36.3,0.2-36.5c0.4-1,1.4-1.7,2.5-1.6c0.7,0,1.3,0.3,1.8,0.8
	c0.4,0.5,0.6,1.2,0.6,1.8v35.6c0,1.3,0,2.6-0.1,4.2s-0.1,3-0.2,4.5c-0.1,1.5-0.3,3-0.6,4.5c-0.3,1.3-0.6,2.6-1.1,3.9
	c-0.9,2-2.2,3.9-3.9,5.3c-1.7,1.4-3.6,2.5-5.7,3.4c-2.1,0.9-4.3,1.5-6.6,1.8c-2.2,0.3-4.3,0.5-6.5,0.5c-2.1,0-4.3-0.2-6.4-0.5
	c-2.2-0.4-4.3-1-6.3-1.8c-2-0.8-3.8-1.9-5.5-3.3c-1.7-1.4-3-3.2-3.8-5.3c-0.6-1.3-1-2.6-1.3-4c-0.3-1.5-0.5-3.1-0.6-4.6
	c-0.1-1.6-0.2-3.2-0.3-4.7c-0.1-1.6-0.1-3-0.1-4.3L329.8,37.5L329.8,37.5L329.8,37.5z M413.5,39.9v57.6c0,0.8-0.2,1.6-0.6,2.3
	c-0.5,0.7-1.3,1-2.2,0.9c-0.7,0-1.3-0.3-1.8-0.8c-0.4-0.5-0.6-1.2-0.6-1.8V37.4c0-0.5,0.2-1,0.5-1.4c0.3-0.4,0.8-0.7,1.3-0.8
	c0.6-0.1,1.2-0.1,1.8-0.1h9.2c0.7-0.1,1.4,0.3,1.8,0.9c0.3,0.6,0.6,1.2,0.8,1.9l16.7,47.8c0,0,11.7-34.6,14.1-41.5
	c0.1-0.6,0.3-1.1,0.5-1.6c0.3-0.8,0.6-1.7,0.9-2.5s0.6-1.7,0.9-2.5c0.1-0.5,0.3-0.9,0.5-1.3c0.5-0.8,1.4-1.2,2.3-1.1h10
	c0.5,0,1,0.2,1.4,0.5c0.4,0.3,0.7,0.8,0.9,1.3c0.1,0.7,0.1,1.3,0.1,2c0,1.2,0.1,51.4,0.1,59.7c0,0.7-0.3,1.3-0.9,1.8
	c-0.5,0.4-1.2,0.6-1.8,0.7c-0.5,0-1-0.2-1.4-0.5c-0.4-0.3-0.7-0.8-0.9-1.3c-0.1-0.7-0.1-1.3-0.1-2c0-1.1,0-49.3-0.1-57.1h-5.6
	c-3,8.9-14.9,44-18,53.2c-0.2,0.7-0.5,1.5-0.9,2.1c-0.5,0.6-1.3,1-2.1,0.8c-0.7,0.1-1.5-0.3-1.8-1c-0.3-0.7-0.6-1.4-0.8-2.1
	L419.3,40L413.5,39.9L413.5,39.9L413.5,39.9z M542.1,65.1c2.8,1.8,5,4.3,6.5,7.3c1.6,3,2.4,6.3,2.4,9.7c0,5.2-1.5,9.4-4.4,12.5
	c-3.2,3.2-7.5,5.2-12.1,5.6c-1.9,0.3-3.9,0.4-5.9,0.3h-23.5c-0.7,0-1.3-0.3-1.8-0.8c-0.4-0.5-0.6-1.2-0.6-1.8V37.1
	c0-0.5,0.2-1,0.5-1.4c0.3-0.4,0.8-0.7,1.3-0.8c0.6-0.1,1.2-0.1,1.8-0.1h21.5c2.8,0,5.5,0.3,8.2,0.8c2.5,0.5,4.9,1.4,7,2.8
	c2,1.3,3.7,3.2,4.8,5.3c1.3,2.5,1.9,5.3,1.8,8.1c0.1,2.9-0.6,5.7-2,8.2c-1.3,2.2-3.2,4.1-5.5,5.4L542.1,65.1z M545.8,82
	c0-0.9-0.1-1.9-0.2-2.8c-0.2-0.9-0.4-1.8-0.8-2.7c-0.9-2.1-2.2-4-3.9-5.6c-1.7-1.5-3.8-2.6-6-3.1c-1-0.2-1.9-0.3-2.9-0.3h-24.3v28
	h0.1l16.1-0.1c2.6,0,5.2,0,7.8-0.2c2.4-0.1,4.8-0.5,7-1.3c2-0.8,3.8-2.2,5.1-3.9C545.2,87.6,545.9,84.8,545.8,82L545.8,82z
	 M507.8,62.3c0,0,26-0.1,26.5-0.2c0.5,0,1-0.1,1.5-0.2c2.5-0.4,4.9-1.6,6.5-3.6c1.5-2,2.3-4.5,2.2-7.1c0.3-4-1.9-7.7-5.5-9.5
	c-1.7-0.9-3.6-1.4-5.5-1.6c-2-0.3-4-0.4-6-0.4h-19.8L507.8,62.3L507.8,62.3z M577.6,35.4c0.5-0.4,1.2-0.7,1.9-0.7
	c0.7,0,1.3,0.3,1.8,0.8c0.4,0.5,0.6,1.2,0.7,1.8v60.7c0,0.7-0.3,1.3-0.8,1.8c-0.5,0.4-1.2,0.6-1.8,0.7c-0.7,0-1.3-0.3-1.8-0.8
	c-0.4-0.5-0.6-1.2-0.7-1.8V37.1C576.8,36.5,577.1,35.8,577.6,35.4L577.6,35.4z M642.3,34.7c0.8,0,1.5,0.3,2.1,0.8
	c0.5,0.7,0.8,1.4,1.1,2.2c0.5,1.3,21.9,54.5,22.8,56.7s1.3,3.4,1.3,3.5c0,0.7-0.2,1.3-0.7,1.8c-0.4,0.6-1.1,0.9-1.8,0.8
	c-1,0.1-1.9-0.3-2.3-1.2c-0.4-0.8-0.7-1.6-1-2.5l-6.5-16.3h-39.9l-6.9,16.8c-0.3,0.7-0.7,1.4-1,2.1c-0.3,0.7-1.1,1.2-1.9,1.1
	c-0.7,0-1.3-0.2-1.8-0.7c-0.6-0.4-0.9-1.1-0.8-1.8c0.3-1.3,0.8-2.6,1.3-3.9c1-2.4,24-58.4,24.1-58.6c0.4-0.7,1.1-1.1,1.9-1.1
	L642.3,34.7z M655.4,75.4l-14.4-35.5h-6.7l-14.6,35.5L655.4,75.4L655.4,75.4z"/>
</svg>
