<svg id="Background" xmlns="http://www.w3.org/2000/svg" viewBox="0 0 312 523"><defs><style>.cls-1{fill:#ffccc0;}</style></defs><polygon class="cls-1" points="156 7 149 8 143 9 143 9 137 12 133 15 133 16 130 20 129 24 129 25 129 27 129 27 129 27 128 31 128 44 129 48 129 49 129 131 127 132 115 137 112 139 109 141 98 149 95 152 92 156 85 166 83 170 81 174 79 178 76 190 76 195 75 200 75 459 76 464 79 476 82 481 89 492 93 495 105 503 120 510 137 514 155 515 156 515 156 515 175 514 192 510 207 503 218 495 219 494 222 492 230 481 233 476 236 464 236 459 236 200 236 195 235 190 233 178 231 174 229 170 227 166 219 156 217 152 214 149 203 141 200 139 197 137 185 132 182 131 182 49 183 48 184 44 184 31 183 27 183 27 183 27 183 25 183 24 182 20 179 16 178 15 174 12 169 9 168 9 162 8 156 7"/></svg>