<svg id="Background" xmlns="http://www.w3.org/2000/svg" viewBox="0 0 312 523"><defs><style>.cls-1{fill:#ffccc0;}</style></defs><polygon class="cls-1" points="158 13 152 13 147 14 143 15 139 18 136 20 135 23 135 27 134 27 133 31 132 43 132 46 134 50 134 50 134 73 132 136 127 138 119 143 109 154 102 162 98 170 93 186 91 464 92 474 97 483 99 488 108 496 120 502 134 507 150 509 166 508 182 506 195 501 206 494 214 486 217 481 220 471 219 193 218 183 213 168 208 160 197 147 191 142 182 137 180 136 178 75 177 50 178 49 180 45 180 42 179 30 177 27 176 23 175 20 172 17 168 15 163 13 158 13"/></svg>