<svg id="Background" xmlns="http://www.w3.org/2000/svg" viewBox="0 0 312 523"><defs><style>.cls-1{fill:#ffccc0;}</style></defs><polygon class="cls-1" points="162 12 156 11 150 12 144 13 140 15 136 18 136 18 134 20 131 24 130 28 130 30 131 32 131 33 131 34 131 37 131 38 131 39 131 40 130 44 130 47 129 51 129 51 130 55 129 56 130 58 129 59 128 63 128 63 129 68 130 68 130 115 130 116 128 124 127 134 126 136 125 138 124 139 122 142 119 144 116 147 113 149 110 152 108 154 105 157 99 166 96 171 92 176 90 182 89 187 87 197 86 202 85 208 85 459 87 466 89 477 91 481 97 490 100 493 110 501 124 507 139 510 156 512 172 510 188 507 201 501 211 493 214 490 221 481 222 477 225 466 226 459 226 208 226 202 225 197 223 187 221 182 219 176 216 171 213 166 207 157 204 154 202 152 199 149 196 147 193 144 190 142 187 139 187 138 186 136 185 134 183 124 182 116 182 115 182 68 183 68 183 63 183 63 183 59 182 58 182 56 182 55 183 51 183 51 182 47 182 44 181 40 181 39 181 38 180 37 181 34 181 33 181 32 181 30 181 28 180 24 178 20 176 18 176 18 172 15 167 13 162 12"/></svg>