<svg id="Background" xmlns="http://www.w3.org/2000/svg" viewBox="0 0 312 523"><defs><style>.cls-1{fill:#ffccc0;}</style></defs><polygon class="cls-1" points="156 5 149 5 143 7 138 9 134 12 132 16 131 19 131 26 132 30 132 31 131 31 131 32 132 35 132 36 132 52 132 54 132 56 132 117 130 143 126 162 91 232 80 273 78 285 78 465 80 477 88 487 95 494 107 502 121 508 138 512 156 514 174 512 191 508 205 502 216 494 224 487 231 477 234 465 234 285 231 273 221 232 186 162 182 143 180 117 180 56 180 54 180 52 180 36 180 35 180 32 180 31 180 30 181 26 181 19 180 16 178 12 174 9 168 7 162 5 156 5"/></svg>