<svg id="Background" xmlns="http://www.w3.org/2000/svg" viewBox="0 0 312 523"><defs><style>.cls-1{fill:#ffccc0;}</style></defs><polygon class="cls-1" points="158 11 152 11 147 12 143 14 139 16 136 19 135 22 135 25 134 26 133 29 132 41 132 44 134 48 134 48 134 76 132 139 127 141 119 146 109 157 102 164 99 173 93 188 92 464 93 473 98 483 100 487 109 495 120 501 134 506 150 508 166 507 181 505 195 500 206 493 213 485 216 480 220 471 218 195 218 186 212 170 208 162 197 150 191 144 182 140 179 139 178 78 177 48 178 47 180 43 179 40 178 28 177 25 176 21 175 18 172 15 168 13 163 12 158 11"/></svg>