<svg id="Background" xmlns="http://www.w3.org/2000/svg" viewBox="0 0 312 523"><defs><style>.cls-1{fill:#ffccc0;}</style></defs><polygon class="cls-1" points="160 8 154 7 154 8 149 8 148 8 143 9 139 11 138 11 134 14 132 17 131 18 130 22 130 23 130 26 130 26 130 26 129 30 129 42 130 46 130 46 131 47 131 126 130 127 130 129 129 131 124 133 121 135 118 137 110 143 106 147 103 150 97 158 94 163 91 168 89 173 87 178 85 188 84 194 83 200 83 206 83 454 84 459 86 470 88 474 95 484 99 487 109 494 122 500 125 501 136 504 139 504 139 504 154 506 169 504 184 501 186 500 199 494 209 487 210 487 213 484 220 474 222 470 225 459 225 454 225 206 225 200 224 194 223 188 221 178 219 173 217 168 214 163 211 158 205 150 202 147 198 143 190 137 187 135 184 133 179 131 178 129 178 127 178 126 178 47 178 46 178 46 179 42 179 30 178 26 178 26 178 26 178 23 178 22 177 18 176 17 174 14 170 11 170 11 165 9 160 8"/></svg>