<svg id="Background" xmlns="http://www.w3.org/2000/svg" viewBox="0 0 312 523"><defs><style>.cls-1{fill:#ffccc0;}</style></defs><polygon class="cls-1" points="156 11 150 11 145 12 141 14 137 16 134 19 133 22 132 25 132 26 131 29 130 41 130 45 132 48 132 49 132 71 130 135 125 138 117 143 106 154 99 162 96 170 90 186 89 467 89 477 94 486 97 491 106 499 118 505 132 510 148 512 164 512 180 509 194 504 205 497 213 489 215 484 219 474 218 193 217 183 211 168 207 159 196 147 189 141 181 136 178 135 176 74 176 48 177 47 178 44 178 40 177 28 175 25 175 21 173 18 170 15 166 13 161 12 156 11"/></svg>