<svg id="Background" xmlns="http://www.w3.org/2000/svg" viewBox="0 0 312 523"><defs><style>.cls-1{fill:#ffccc0;}</style></defs><polygon class="cls-1" points="161 14 156 14 151 14 146 15 141 17 138 20 136 22 135 25 135 28 133 30 133 34 133 46 133 50 134 52 135 53 134 111 134 113 132 137 131 141 130 141 119 146 111 152 101 162 94 170 87 185 85 196 84 213 91 463 94 473 94 473 95 481 102 489 104 492 114 499 126 504 140 508 156 509 171 508 186 504 198 499 208 492 210 489 216 481 218 473 218 473 220 463 228 213 227 196 224 185 218 170 211 162 201 152 193 146 182 141 180 141 180 137 178 113 178 111 177 53 178 52 178 50 179 46 179 34 178 30 176 28 176 25 176 22 174 20 170 17 166 15 161 14"/></svg>