<svg id="Background" xmlns="http://www.w3.org/2000/svg" viewBox="0 0 312 523"><defs><style>.cls-1{fill:#ffccc0;}</style></defs><polygon class="cls-1" points="158 9 152 9 147 10 142 12 139 14 136 17 135 20 134 23 134 24 133 27 132 39 132 43 134 46 134 47 134 69 132 121 127 124 118 129 113 135 101 149 98 157 92 175 91 465 91 475 96 484 99 489 108 497 120 503 134 508 150 510 166 510 182 507 196 502 207 495 215 487 217 482 221 472 220 182 219 172 213 155 209 147 198 133 191 127 182 122 180 121 180 121 178 72 178 46 179 45 180 42 180 38 179 26 177 23 177 19 175 16 172 13 168 11 163 9 158 9"/></svg>