<svg id="Background" xmlns="http://www.w3.org/2000/svg" viewBox="0 0 312 523"><defs><style>.cls-1{fill:#ffccc0;}</style></defs><polygon class="cls-1" points="151 6 156 5 161 6 161 6 167 7 171 9 172 9 172 10 176 12 177 13 178 14 180 17 181 18 181 22 181 29 181 33 181 33 182 37 182 44 181 47 178 51 177 52 177 55 178 60 178 64 179 69 179 74 180 78 180 83 180 87 181 92 181 97 181 101 182 106 183 116 184 125 185 134 187 144 188 149 190 157 193 166 196 175 199 184 203 192 206 200 211 209 213 214 216 219 218 225 220 230 221 236 223 242 225 252 227 258 228 264 228 270 229 276 229 282 229 289 229 456 229 458 227 469 226 471 226 473 224 475 217 485 216 486 215 488 204 496 202 496 189 503 173 506 172 506 156 508 139 506 139 506 123 503 109 496 108 496 97 488 96 486 94 485 87 475 86 473 85 471 85 469 82 458 82 456 82 289 82 282 83 276 83 270 84 264 85 258 87 252 89 242 90 236 92 230 94 225 96 219 99 214 101 209 105 200 109 192 113 184 116 175 119 166 121 157 124 149 125 144 126 134 128 125 129 116 130 106 130 101 131 97 131 92 131 87 132 83 132 78 133 74 133 69 133 64 134 60 134 55 135 52 133 51 131 47 130 44 130 37 131 33 131 33 130 29 130 22 131 18 132 17 134 14 135 13 136 12 139 10 140 9 141 9 145 7 150 6 151 6"/></svg>