<svg id="Background" xmlns="http://www.w3.org/2000/svg" viewBox="0 0 312 523"><defs><style>.cls-1{fill:#ffccc0;}</style></defs><polygon class="cls-1" points="151 5 146 5 141 6 137 8 135 9 131 12 129 15 128 18 128 29 126 31 124 35 124 50 125 53 124 54 124 106 125 109 122 128 121 132 118 133 111 139 105 144 101 148 94 156 89 165 86 175 84 186 84 467 86 477 92 486 102 495 115 501 119 502 133 506 148 508 164 507 178 504 191 499 196 497 207 489 214 480 217 470 217 189 215 179 213 168 208 159 203 151 199 146 193 141 185 135 180 132 178 126 176 109 177 107 177 55 176 53 177 51 177 37 176 33 174 29 174 29 174 19 173 16 171 13 167 10 165 9 161 7 156 6 151 5"/></svg>