<svg id="Background" xmlns="http://www.w3.org/2000/svg" viewBox="0 0 312 523"><defs><style>.cls-1{fill:#ffccc0;}</style></defs><polygon class="cls-1" points="156 12 151 13 150 13 150 13 145 14 140 16 140 16 136 19 134 22 133 23 132 27 132 28 132 30 132 30 132 31 131 35 131 47 132 51 132 51 132 51 132 133 123 137 120 139 117 141 108 147 105 150 102 153 96 162 93 166 91 170 89 174 88 178 86 189 85 193 85 198 85 459 85 464 88 475 90 479 97 488 100 492 110 499 124 505 126 506 138 509 140 509 141 509 156 510 171 509 185 506 188 505 201 499 211 492 212 491 215 488 222 479 224 475 226 464 227 459 227 198 227 193 226 189 224 178 223 174 221 170 219 166 216 162 210 153 207 150 204 147 195 141 192 139 189 137 179 133 179 51 180 51 180 51 181 47 181 35 180 31 180 30 180 30 180 28 180 27 179 23 178 22 176 19 172 16 171 16 167 14 162 13 161 13 156 12"/></svg>