<svg id="Background" xmlns="http://www.w3.org/2000/svg" viewBox="0 0 312 523"><defs><style>.cls-1{fill:#ffccc0;}</style></defs><polygon class="cls-1" points="156 10 150 10 145 11 141 13 138 16 136 19 135 22 135 24 133 27 132 31 132 43 133 47 133 49 134 50 133 110 134 112 132 137 131 140 129 141 118 146 110 152 99 162 92 171 86 186 83 197 82 215 90 472 92 481 94 484 94 486 100 495 110 502 124 508 139 512 156 513 173 512 188 508 201 502 212 495 218 486 218 485 220 481 222 472 230 215 229 197 226 186 219 171 213 162 202 152 194 146 183 141 181 140 180 137 178 112 179 110 178 50 178 49 179 47 180 43 180 31 179 27 177 24 177 22 176 19 174 16 171 13 166 11 161 10 156 10"/></svg>