<svg id="Background" xmlns="http://www.w3.org/2000/svg" viewBox="0 0 312 523"><defs><style>.cls-1{fill:#ffccc0;}</style></defs><polygon class="cls-1" points="158 11 152 11 147 12 142 14 139 16 136 19 135 22 134 25 134 26 133 29 132 41 132 45 134 48 134 49 134 71 132 135 127 138 118 143 108 154 101 162 98 170 92 186 91 467 91 477 96 486 99 491 108 499 120 505 134 510 150 512 166 512 182 509 196 504 207 497 215 489 217 484 221 474 220 193 219 183 213 168 209 159 198 147 191 141 182 136 180 135 178 74 178 48 179 47 180 44 180 40 179 28 177 25 177 21 175 18 172 15 168 13 163 12 158 11"/></svg>