<svg id="Background" xmlns="http://www.w3.org/2000/svg" viewBox="0 0 312 523"><defs><style>.cls-1{fill:#ffccc0;}</style></defs><polygon class="cls-1" points="156 40 151 40 148 41 140 43 133 46 128 50 125 54 124 59 124 64 125 68 125 69 125 69 124 74 125 79 128 83 129 84 117 151 114 153 112 156 109 159 107 162 101 170 99 173 96 177 95 180 93 184 92 188 91 193 88 203 88 207 88 469 90 480 97 489 104 496 114 503 126 508 140 512 156 513 171 512 186 508 198 503 208 496 215 489 222 480 224 469 224 207 223 203 221 193 220 188 219 184 217 180 215 177 213 173 211 170 205 162 203 159 200 156 197 153 195 151 182 84 183 83 187 79 188 74 187 69 186 69 187 68 188 64 188 59 187 54 183 50 178 46 172 43 164 41 161 40 156 40"/></svg>