<svg id="Background" xmlns="http://www.w3.org/2000/svg" viewBox="0 0 312 523"><defs><style>.cls-1{fill:#ffccc0;}</style></defs><polygon class="cls-1" points="152 47 146 48 140 49 135 52 131 55 128 58 125 68 124 72 125 77 125 78 123 84 122 88 123 93 126 97 127 98 118 137 117 143 108 230 95 241 89 250 86 260 86 467 89 477 95 487 103 497 112 503 124 509 138 512 152 513 167 512 181 509 193 503 202 497 210 487 216 477 219 467 219 260 216 250 210 241 197 230 188 143 187 137 178 98 179 97 182 93 183 88 182 84 179 78 180 77 181 72 180 68 177 58 174 55 170 52 165 49 159 48 152 47"/></svg>