<svg id="Background" xmlns="http://www.w3.org/2000/svg" viewBox="0 0 312 523"><defs><style>.cls-1{fill:#ffccc0;}</style></defs><polygon class="cls-1" points="163 46 156 46 149 46 143 48 137 50 133 54 132 54 129 58 128 60 128 61 127 65 127 67 127 71 127 70 127 72 127 72 128 72 128 72 128 73 128 73 128 73 128 74 128 74 127 75 126 76 126 77 126 79 125 84 125 86 126 91 128 93 128 93 117 202 116 209 114 212 106 218 98 226 92 235 89 247 87 257 87 270 87 457 88 469 90 479 97 489 104 497 113 504 126 510 140 513 156 514 171 513 186 510 198 504 208 497 215 489 221 479 224 469 225 457 225 270 225 257 223 247 220 235 213 226 206 218 198 212 196 209 195 202 184 93 184 93 186 91 187 86 187 84 186 79 185 77 185 76 184 74 184 73 184 73 185 73 185 72 185 71 185 70 185 68 185 67 185 67 185 65 184 61 183 60 183 58 180 54 179 54 175 50 169 48 163 46"/></svg>