<svg id="Background" xmlns="http://www.w3.org/2000/svg" viewBox="0 0 312 523"><defs><style>.cls-1{fill:#ffccc0;}</style></defs><polygon class="cls-1" points="156 16 149 16 147 16 138 18 131 21 126 26 122 30 121 36 121 43 122 48 124 51 122 57 121 62 122 68 126 72 126 73 117 175 117 188 106 196 100 204 87 231 84 242 84 429 85 474 88 484 95 494 106 502 121 509 138 513 156 514 174 513 191 509 206 502 217 494 224 484 226 474 227 429 227 242 225 231 211 204 206 196 195 188 195 175 186 73 186 72 190 68 191 62 190 57 187 51 190 48 191 43 191 36 190 30 186 26 181 21 173 18 165 16 162 16 156 16"/></svg>