<svg id="Background" xmlns="http://www.w3.org/2000/svg" viewBox="0 0 312 523"><defs><style>.cls-1{fill:#ffccc0;}</style></defs><polygon class="cls-1" points="161 48 156 48 151 48 146 49 141 50 134 53 129 57 126 61 125 66 126 70 129 74 126 82 125 87 126 91 129 95 113 181 113 205 109 209 103 216 91 236 89 246 89 468 91 478 96 486 102 495 112 502 125 508 140 512 156 513 172 512 187 508 200 502 210 495 216 486 220 478 223 468 223 246 220 236 208 216 203 209 199 205 199 181 183 95 186 91 187 87 186 82 183 74 185 70 186 66 185 61 182 57 177 53 171 50 166 49 161 48"/></svg>