<svg id="Background" xmlns="http://www.w3.org/2000/svg" viewBox="0 0 312 523"><defs><style>.cls-1{fill:#ffccc0;}</style></defs><polygon class="cls-1" points="156 64 150 64 144 66 139 68 135 71 133 74 132 77 121 185 121 223 118 225 110 231 104 239 94 255 91 264 91 456 92 465 94 474 100 485 106 494 115 500 126 506 135 510 145 512 156 513 167 512 177 510 186 506 197 500 206 494 212 485 217 474 220 465 220 456 220 264 218 255 207 239 202 231 194 225 190 223 190 185 180 77 179 74 177 71 173 68 168 66 162 64 156 64"/></svg>