<svg id="Background" xmlns="http://www.w3.org/2000/svg" viewBox="0 0 312 523"><defs><style>.cls-1{fill:#ffccc0;}</style></defs><polygon class="cls-1" points="156 39 147 39 138 42 130 45 125 49 121 54 120 60 120 67 121 73 123 76 121 82 120 87 121 93 125 98 126 99 118 188 118 201 108 209 103 217 89 242 87 253 87 433 88 475 91 485 97 495 108 503 122 509 138 513 156 514 173 513 190 509 204 503 214 495 221 485 223 475 225 433 225 253 222 242 209 217 204 209 194 201 194 188 185 99 187 98 191 93 192 87 191 82 188 76 191 73 192 67 192 60 191 54 187 49 181 45 174 42 165 39 156 39"/></svg>