<svg id="Background" xmlns="http://www.w3.org/2000/svg" viewBox="0 0 312 523"><defs><style>.cls-1{fill:#ffccc0;}</style></defs><polygon class="cls-1" points="161 101 152 100 144 101 136 104 131 108 126 121 130 126 127 136 131 140 122 236 119 250 118 252 116 253 101 274 94 295 96 307 96 438 94 458 96 475 106 495 117 505 133 511 152 513 172 511 188 505 199 495 209 475 211 458 209 438 209 307 210 295 204 274 189 253 187 252 186 250 183 236 174 140 178 136 175 126 179 121 174 108 169 104 161 101"/></svg>