<svg id="Background" xmlns="http://www.w3.org/2000/svg" viewBox="0 0 312 523"><defs><style>.cls-1{fill:#ffccc0;}</style></defs><polygon class="cls-1" points="173 221 156 219 139 221 123 225 122 225 109 231 98 239 98 239 98 239 97 239 91 249 91 249 90 249 88 259 88 260 88 260 88 263 88 264 88 264 90 272 87 284 87 285 86 286 86 287 86 288 83 299 83 300 83 302 82 303 82 304 82 305 82 307 82 308 82 309 82 461 82 462 82 462 85 474 85 474 85 475 92 485 93 485 93 486 95 487 99 494 100 494 100 494 110 502 111 502 124 508 124 508 139 512 156 513 172 512 188 508 188 508 201 502 201 502 212 494 212 494 212 494 217 487 218 486 219 485 219 485 227 475 227 474 227 474 230 462 230 462 230 461 230 309 230 308 230 307 230 305 230 304 229 303 229 302 229 300 229 299 226 288 226 287 226 286 225 285 225 284 222 272 224 264 224 264 224 263 224 260 224 260 224 259 221 249 221 249 221 249 221 248 214 239 214 239 214 239 214 239 203 231 203 231 189 225 189 225 173 221"/></svg>