<svg id="Background" xmlns="http://www.w3.org/2000/svg" viewBox="0 0 312 523"><defs><style>.cls-1{fill:#ffccc0;}</style></defs><polygon class="cls-1" points="159 115 156 115 153 115 149 115 146 115 143 115 139 116 136 116 133 117 130 118 127 118 124 119 121 120 118 121 115 122 113 124 110 125 108 126 106 127 103 129 101 130 99 132 98 134 96 135 94 137 93 139 92 141 91 142 90 144 89 146 89 146 88 148 88 148 89 147 89 147 88 147 87 149 87 149 87 150 86 152 86 151 85 153 85 154 84 156 84 155 84 157 84 158 83 158 83 158 83 158 84 156 85 154 85 154 86 152 87 150 87 150 86 152 85 152 87 150 87 150 85 152 84 154 84 154 84 156 83 158 83 158 83 156 84 154 84 154 85 152 85 153 85 153 84 155 83 157 83 157 84 155 84 155 83 157 83 157 83 157 82 159 82 161 82 162 82 159 82 160 83 158 83 158 82 160 81 162 81 162 82 160 82 158 83 157 83 157 83 156 83 156 82 158 82 158 82 159 82 158 82 159 82 159 82 159 82 159 82 159 82 161 81 161 81 163 81 163 81 165 81 165 81 165 81 167 80 167 80 166 80 166 80 167 80 168 80 169 80 171 80 173 80 455 80 457 80 459 81 461 81 463 81 463 81 461 80 459 80 460 80 460 81 462 81 462 81 464 81 465 81 463 81 463 81 465 82 467 82 467 81 465 81 465 82 468 82 468 83 470 83 470 84 472 84 472 84 472 83 470 82 468 82 468 83 470 84 472 84 473 84 473 85 475 85 475 85 475 85 475 84 473 84 474 85 476 87 478 88 479 89 481 89 481 88 480 87 478 87 478 88 480 88 480 89 481 89 481 88 480 87 479 87 478 87 478 85 476 86 476 86 477 86 477 87 478 87 478 87 478 87 479 88 479 87 479 87 479 89 481 89 481 89 481 90 483 91 485 92 487 93 489 94 491 96 492 98 494 99 496 101 497 103 499 106 500 108 502 110 503 113 504 115 505 118 506 121 507 124 508 127 509 130 510 133 511 136 511 139 512 143 512 146 513 149 513 153 513 156 513 159 513 163 513 166 513 169 512 172 512 176 511 179 511 182 510 185 509 188 508 191 507 194 506 196 505 199 504 201 503 204 502 206 500 208 499 210 497 212 496 214 494 216 492 217 491 219 489 220 487 221 485 222 483 222 481 222 481 223 481 223 481 224 479 224 479 223 481 222 481 222 481 224 480 224 480 222 481 223 481 223 480 223 480 223 480 225 478 225 478 225 478 225 478 226 476 227 475 228 473 228 473 227 475 227 475 228 473 228 473 229 471 229 471 228 473 228 472 228 472 229 470 230 468 230 468 229 470 228 472 227 474 227 474 228 472 229 470 230 468 230 467 231 465 231 465 231 465 231 463 231 462 231 464 231 464 231 462 231 462 231 460 231 459 231 461 231 463 230 466 230 465 231 463 231 461 231 459 232 457 231 455 231 173 232 171 232 170 232 170 232 170 231 168 231 167 231 169 231 169 231 167 231 167 231 168 231 167 231 166 231 165 231 165 231 165 231 165 231 165 231 165 231 163 230 162 230 160 230 160 230 162 231 164 231 164 230 162 230 160 229 158 229 158 230 160 230 160 229 158 228 155 228 155 227 153 227 153 227 153 227 153 228 155 228 155 229 157 229 157 229 159 229 159 229 157 228 155 228 155 229 157 228 157 228 155 228 154 228 156 228 156 227 154 227 152 225 150 225 150 226 152 227 154 227 154 228 156 228 156 227 154 227 154 227 154 226 152 226 152 226 152 225 150 225 150 225 150 224 148 223 146 222 146 222 144 221 142 220 141 219 139 217 137 216 135 214 134 212 132 210 130 208 129 206 127 204 126 201 125 199 124 196 122 194 121 191 120 188 119 185 118 182 118 179 117 176 116 172 116 169 115 166 115 163 115 159 115"/></svg>