<svg id="Background" xmlns="http://www.w3.org/2000/svg" viewBox="0 0 312 523"><defs><style>.cls-1{fill:#ffccc0;}</style></defs><polygon class="cls-1" points="159 47 152 46 146 47 139 48 134 51 129 54 127 57 126 61 126 75 123 83 122 88 123 93 126 97 127 97 114 213 110 216 108 218 106 220 104 222 102 224 97 232 95 235 94 238 92 241 91 244 91 247 88 256 88 259 88 477 90 487 96 496 107 503 120 509 136 513 152 514 169 513 185 509 198 503 209 496 215 487 217 477 217 259 217 256 214 247 214 244 213 241 211 238 210 235 208 232 203 224 201 222 199 220 197 218 195 216 191 213 178 97 179 97 182 93 183 88 182 83 179 75 179 61 178 57 176 54 171 51 166 48 159 47"/></svg>