<svg id="Background" xmlns="http://www.w3.org/2000/svg" viewBox="0 0 312 523"><defs><style>.cls-1{fill:#ffccc0;}</style></defs><polygon class="cls-1" points="156 15 148 15 140 17 134 20 134 20 140 17 140 17 134 20 133 20 128 24 128 24 127 25 127 25 124 30 123 31 122 32 122 33 121 38 121 40 121 41 121 42 121 43 122 48 122 50 123 51 122 54 122 55 122 55 123 60 124 61 124 62 124 63 125 63 124 64 124 66 124 69 124 71 124 73 123 76 123 78 123 81 122 83 118 98 117 105 115 111 114 118 113 125 111 133 111 140 110 147 109 155 109 162 109 169 109 176 109 184 109 185 105 188 102 190 100 193 97 195 95 198 93 201 85 211 83 214 81 218 79 221 79 223 78 224 78 226 77 227 77 229 76 231 73 243 73 245 73 246 73 248 73 250 72 251 72 253 72 453 72 455 73 456 73 458 76 471 76 473 77 474 78 476 79 478 80 479 88 490 89 492 90 493 90 493 102 502 103 502 103 503 119 509 119 509 137 514 156 515 175 514 193 509 193 509 209 503 209 502 209 502 221 493 222 493 223 492 224 490 232 479 233 478 234 476 235 474 235 473 236 471 239 458 239 456 239 455 239 453 239 253 239 251 239 250 239 248 239 246 239 245 238 243 235 231 235 229 235 227 234 226 234 224 233 223 232 221 231 218 229 214 226 211 219 201 217 198 215 195 212 193 210 190 207 188 203 185 203 184 203 176 203 169 203 162 202 155 202 147 201 140 200 133 199 125 198 118 196 111 195 105 193 98 190 83 189 81 189 78 188 76 188 73 188 71 188 69 187 66 187 64 187 63 187 63 188 62 188 61 188 60 189 55 189 55 189 54 189 51 189 50 190 48 191 43 191 42 191 41 191 40 191 38 190 33 189 32 189 31 188 30 185 25 184 25 184 24 184 24 179 21 179 21 179 20 178 20 172 17 171 17 164 15 156 15"/></svg>